<svg width="20" height="20" viewBox="0 0 20 20" fill="none" xmlns="http://www.w3.org/2000/svg"><g filter="url(#filter0_d)"><mask id="path-1-outside-1" maskUnits="userSpaceOnUse" x="2" y="1" width="16" height="16" fill="#000"><path fill="#fff" d="M2 1h16v16H2z"/><path fill-rule="evenodd" clip-rule="evenodd" d="M8.03031 16c0 0-2.21924-1.6987000000000005-3-3C4.24955 11.6987 2.77006 10.041 3.03031 9 3.29056 7.95899 4.24955 7.63092 5.03031 8.41167 5.81107 9.19243 6.33701 10.8841 6.85751 10.6238 7.37802 10.3636 6.98764 7.89117 6.46713 6.45978 5.94663 5.02839 5.40396 2 6.46713 2 7.53031 2 7.53031 3 8.03031 4.5 8.53031 6 8.13993 8 8.53031 8 8.92069 8 9.06966 7.65063 9.06966 7 9.06966 6.82319 9.10432 6.67375 9.17471 6.54986 9.36333 6.21788 9.80845 6.0694 10.5303 6.0694 11.5216 6.0694 11.0303 8 11.5303 8c.5.0.5.04100999999999999.5-1C12.0303 5.95899 12.4939 6.0694 13.4939 6.0694 14.4939 6.0694 14.0098 8 14.5303 8c.5205000000000002.0.0-1 .5-1 .5.0 1 .15772999999999993 1 2.5C16.0303 11.8423 16.3111 11.959 15.5303 13 14.7496 14.041 14.0303 15 14.0303 15c0 0 0 1-.5364000000000004 1C12.9576 16 12.6809 15 12.0303 15c-.6506000000000007.0-1 1-1 1H8.03031zm5.99999-2V10h-1v4h1zm-3-1C11.0303 13.2709 11.2622 14 11.5303 14 11.8065 14 12.0303 13.2754 12.0303 13V11C12.0303 10.7291 11.7984 10 11.5303 10 11.2542 10 11.0303 10.7246 11.0303 11v2zM9.03031 13C9.03031 13.2709 9.26224 14 9.53031 14 9.80645 14 10.0303 13.2754 10.0303 13V11C10.0303 10.7291 9.79838 10 9.53031 10 9.25417 10 9.03031 10.7246 9.03031 11v2z"/></mask><path fill-rule="evenodd" clip-rule="evenodd" d="M8.03031 16c0 0-2.21924-1.6987000000000005-3-3C4.24955 11.6987 2.77006 10.041 3.03031 9 3.29056 7.95899 4.24955 7.63092 5.03031 8.41167 5.81107 9.19243 6.33701 10.8841 6.85751 10.6238 7.37802 10.3636 6.98764 7.89117 6.46713 6.45978 5.94663 5.02839 5.40396 2 6.46713 2 7.53031 2 7.53031 3 8.03031 4.5 8.53031 6 8.13993 8 8.53031 8 8.92069 8 9.06966 7.65063 9.06966 7 9.06966 6.82319 9.10432 6.67375 9.17471 6.54986 9.36333 6.21788 9.80845 6.0694 10.5303 6.0694 11.5216 6.0694 11.0303 8 11.5303 8c.5.0.5.04100999999999999.5-1C12.0303 5.95899 12.4939 6.0694 13.4939 6.0694 14.4939 6.0694 14.0098 8 14.5303 8c.5205000000000002.0.0-1 .5-1 .5.0 1 .15772999999999993 1 2.5C16.0303 11.8423 16.3111 11.959 15.5303 13 14.7496 14.041 14.0303 15 14.0303 15c0 0 0 1-.5364000000000004 1C12.9576 16 12.6809 15 12.0303 15c-.6506000000000007.0-1 1-1 1H8.03031zm5.99999-2V10h-1v4h1zm-3-1C11.0303 13.2709 11.2622 14 11.5303 14 11.8065 14 12.0303 13.2754 12.0303 13V11C12.0303 10.7291 11.7984 10 11.5303 10 11.2542 10 11.0303 10.7246 11.0303 11v2zM9.03031 13C9.03031 13.2709 9.26224 14 9.53031 14 9.80645 14 10.0303 13.2754 10.0303 13V11C10.0303 10.7291 9.79838 10 9.53031 10 9.25417 10 9.03031 10.7246 9.03031 11v2z" fill="#fff"/><path d="M8.03031 16 7.42248 16.7941 7.69151 17h.3388V16zm-3-3L4.17282 13.5145 5.03031 13zm-2-4L4.00045 9.24254 3.03031 9zM5.03031 8.41167 4.3232 9.11878v0L5.03031 8.41167zM6.85751 10.6238 6.4103 9.72939h0L6.85751 10.6238zM6.46713 6.45978 7.40693 6.11804 6.46713 6.45978zM6.46713 2V1h0V2zM8.53031 8V9h0V8zM9.06966 7h-1 1zM9.17471 6.54986 8.30524 6.05587 9.17471 6.54986zM10.5303 6.0694v-1 1zm1 1.9306V7 8zm.5-1h-1 1zM13.4939 6.0694v-1 1zM14.5303 8V9 8zm.5-1V6 7zm1 2.5h-1 1zm-2 5.5L13.2303 14.4 13.0303 14.6667V15h1zM13.4939 16V15v1zM12.0303 15V14v1zm-1 1v1H11.7402L11.9744 16.3298 11.0303 16zm3-2v1h1V14h-1zm0-4h1V9h-1v1zm-1 0V9h-1v1h1zm0 4h-1v1h1V14zM8.03031 16C8.63814 15.2059 8.63821 15.206 8.63827 15.206 8.63827 15.206 8.63833 15.2061 8.63835 15.2061 8.63838 15.2061 8.63838 15.2061 8.63835 15.2061 8.63829 15.2061 8.6381 15.2059 8.63778 15.2057 8.63713 15.2052 8.63596 15.2043 8.63428 15.203 8.63092 15.2004 8.62553 15.1962 8.61821 15.1905 8.60358 15.1792 8.58126 15.1618 8.55214 15.1388 8.49387 15.093 8.40858 15.0251 8.30329 14.9392 8.09221 14.7671 7.80334 14.5249 7.49217 14.2448 6.8424 13.6598 6.1941 12.996 5.8878 12.4855L4.17282 13.5145C4.64728 14.3053 5.49897 15.1415 6.15402 15.7312 6.49525 16.0384 6.80999 16.3022 7.03942 16.4893 7.15438 16.583 7.24856 16.658 7.31471 16.7101 7.3478 16.7361 7.37393 16.7565 7.39218 16.7707 7.4013 16.7778 7.40847 16.7833 7.41355 16.7872 7.4161 16.7892 7.41812 16.7907 7.41962 16.7919 7.42036 16.7924 7.42098 16.7929 7.42145 16.7933 7.42169 16.7935 7.4219 16.7936 7.42207 16.7938 7.42215 16.7938 7.42226 16.7939 7.4223 16.7939 7.4224 16.794 7.42248 16.7941 8.03031 16zM5.8878 12.4855C5.67349 12.1283 5.41598 11.7543 5.17522 11.405 4.927 11.0448 4.69291 10.7057 4.49174 10.3785 4.28866 10.0483 4.14555 9.77196 4.06565 9.54678 3.98235 9.31203 4.00327 9.23128 4.00045 9.24254L2.06017 8.75746C1.92723 9.28923 2.03548 9.80607 2.18079 10.2156 2.3295 10.6347 2.55627 11.0493 2.78813 11.4263 3.02189 11.8064 3.2878 12.1907 3.52843 12.5399 3.77654 12.8999 3.99675 13.221 4.17282 13.5145L5.8878 12.4855zM4.00045 9.24254C4.06865 8.96974 4.17603 8.96395 4.13096 8.97791 4.11468 8.98295 4.10996 8.97714 4.13062 8.98351 4.15502 8.99102 4.22444 9.02002 4.3232 9.11878L5.73742 7.70457C5.1495 7.11665 4.34341 6.8184 3.53928 7.06744 2.75446 7.3105 2.25222 7.98925 2.06017 8.75746L4.00045 9.24254zM4.3232 9.11878C4.60033 9.39591 4.8354 9.84429 5.18507 10.4244 5.32759 10.6608 5.5232 10.9738 5.75645 11.2062 5.87594 11.3252 6.06744 11.4876 6.33287 11.5799 6.63698 11.6858 6.98325 11.679 7.30473 11.5182L6.4103 9.72939C6.60165 9.63372 6.81762 9.63098 6.99029 9.69108 7.12428 9.73771 7.18319 9.80447 7.16798 9.78931 7.13183 9.7533 7.04957 9.64341 6.89794 9.39187 6.65932 8.99601 6.24104 8.20819 5.73742 7.70457L4.3232 9.11878zM7.30473 11.5182C7.68038 11.3304 7.85791 11.0055 7.94001 10.8003 8.02685 10.5832 8.06554 10.3562 8.08454 10.1621 8.12301 9.76917 8.09838 9.31061 8.04585 8.86413 7.93993 7.96384 7.6956 6.91188 7.40693 6.11804L5.52734 6.80152C5.75917 7.43907 5.97028 8.339 6.05955 9.09782 6.10462 9.48089 6.11252 9.77869 6.09406 9.96725 6.08459 10.0639 6.07245 10.084 6.08305 10.0575 6.0889 10.0429 6.16477 9.85215 6.4103 9.72939L7.30473 11.5182zM7.40693 6.11804C7.17472 5.47947 6.9311 4.45514 6.87064 3.62084 6.83941 3.18996 6.86547 2.91074 6.90442 2.77893 6.92261 2.71738 6.9214 2.76652 6.84644 2.84123 6.74638 2.94095 6.60095 3 6.46713 3V1C6.06752 1 5.70648 1.15369 5.43463 1.42462 5.18788 1.67053 5.05872 1.96745 4.9864 2.21218 4.84435 2.69292 4.83926 3.26025 4.87587 3.7654 4.95107 4.80314 5.23904 6.0087 5.52734 6.80152L7.40693 6.11804zM6.46713 3C6.56714 3 6.54337 3.01975 6.49222 2.98165 6.45803 2.95618 6.48481 2.95642 6.54684 3.0953 6.6114 3.23984 6.67418 3.43958 6.763 3.75091 6.84621 4.04255 6.94777 4.41465 7.08163 4.81623l1.89736-.63246C8.86285 3.83535 8.77691 3.51995 8.68627 3.20222 8.60124 2.90417 8.50382 2.57266 8.37298 2.2797 8.23961 1.98108 8.0358 1.63757 7.68697 1.37773 7.32118 1.10525 6.89872 1 6.46713 1V3zM7.08163 4.81623C7.27651 5.40087 7.30756 6.12723 7.32162 6.83243 7.32782 7.14378 7.33115 7.5104 7.36538 7.78691 7.38142 7.91652 7.41503 8.13413 7.51577 8.34394 7.62468 8.5708 7.93306 9 8.53031 9V7C9.02996 7 9.26515 7.3667 9.31874 7.47832 9.36414 7.5729 9.3603 7.62254 9.35023 7.54121 9.33224 7.39585 9.32872 7.16872 9.32122 6.79257 9.30787 6.12277 9.28411 5.09913 8.97899 4.18377l-1.89736.63246zM8.53031 9C8.78149 9 9.05451 8.94203 9.30821 8.78391 9.56041 8.62672 9.72873 8.41098 9.83717 8.19839 10.0347 7.81114 10.0697 7.36317 10.0697 7H8.06966C8.06966 7.12778 8.06211 7.21535 8.05307 7.2713 8.04357 7.33012 8.03675 7.3265 8.05558 7.28959 8.07798 7.24567 8.13586 7.15793 8.25034 7.08658 8.36631 7.0143 8.47431 7 8.53031 7V9zM10.0697 7C10.0697 6.97647 10.072 6.97213 10.0697 6.98203 10.0671 6.99299 10.0602 7.01569 10.0442 7.04385L8.30524 6.05587C8.1304 6.36361 8.06966 6.69278 8.06966 7H10.0697zM10.0442 7.04385C9.98987 7.13945 9.92312 7.14987 9.98228 7.12921 10.0583 7.10267 10.2244 7.0694 10.5303 7.0694v-2C9.78985 5.0694 8.79245 5.19835 8.30524 6.05587L10.0442 7.04385zM10.5303 7.0694C10.4833 7.0694 10.3928 7.05518 10.298 6.9944 10.2098 6.93795 10.1705 6.87497 10.1615 6.85891 10.1613 6.8585 10.1921 6.93023 10.2231 7.16533 10.2413 7.30372 10.2747 7.68033 10.3258 7.91284 10.3537 8.03995 10.4126 8.26898 10.5609 8.48423 10.7423 8.74768 11.0718 9 11.5303 9V7C11.8638 7 12.0993 7.19198 12.208 7.34986 12.2836 7.45953 12.2911 7.53773 12.2792 7.48385 12.2508 7.35437 12.2513 7.24833 12.206 6.90407 12.1733 6.65652 12.1099 6.2456 11.9074 5.8832 11.7972 5.68615 11.6297 5.47234 11.3768 5.31031 11.1171 5.14395 10.8251 5.0694 10.5303 5.0694v2zm1 1.9306C11.5865 9 11.8107 9.00716 11.9933 8.97489 12.1111 8.95409 12.2808 8.90876 12.4539 8.7961 12.6376 8.67647 12.7682 8.51819 12.8545 8.3527 12.9958 8.08165 13.0133 7.79061 13.021 7.65015 13.0307 7.47354 13.0303 7.24779 13.0303 7h-2C11.0303 7.27272 11.0299 7.43222 11.024 7.5407 11.0212 7.59215 11.0183 7.60475 11.02 7.59531 11.0213 7.58839 11.0334 7.51948 11.0811 7.42806 11.1361 7.32251 11.2277 7.2079 11.3626 7.12006 11.4868 7.03919 11.5979 7.01377 11.6454 7.00539 11.6882 6.99783 11.7093 6.99928 11.6763 6.99991 11.6409 7.00058 11.6102 7 11.5303 7V9zm1.5-2C13.0303 6.90471 13.0358 6.8448 13.0409 6.81087 13.0461 6.77673 13.0488 6.78345 13.0356 6.81382 13.0206 6.84823 12.9896 6.90294 12.9338 6.95822 12.8779 7.01368 12.8202 7.04681 12.7787 7.06446 12.7418 7.08017 12.7249 7.08063 12.7452 7.07746 12.7658 7.07425 12.8054 7.07015 12.8755 7.0679 12.9454 7.06565 13.0278 7.06567 13.1349 7.06665 13.236 7.06757 13.3629 7.0694 13.4939 7.0694v-2C13.293 5.0694 13.0133 5.06244 12.8113 5.06893 12.6029 5.07563 12.2951 5.0967 11.9955 5.22418 11.6403 5.37534 11.3626 5.64542 11.2012 6.01702 11.0618 6.33798 11.0303 6.68674 11.0303 7h2zM13.4939 7.0694C13.4497 7.0694 13.3623 7.05605 13.2698 6.99755 13.1837 6.94313 13.1449 6.88229 13.1362 6.86699 13.1298 6.85573 13.1403 6.87108 13.1567 6.93348 13.1725 6.99386 13.1871 7.07226 13.202 7.17628 13.2222 7.31775 13.2596 7.69258 13.317 7.93169 13.3483 8.06215 13.4132 8.29234 13.5696 8.50658 13.7601 8.76755 14.0889 9 14.5303 9V7C14.8416 7 15.0717 7.17212 15.1851 7.32751 15.2644 7.43617 15.2739 7.51553 15.2618 7.465 15.2323 7.34212 15.2307 7.2343 15.1819 6.89312 15.1466 6.64658 15.0791 6.23609 14.8729 5.87512 14.7608 5.67883 14.5917 5.46716 14.3387 5.30716 14.0792 5.14309 13.7882 5.0694 13.4939 5.0694v2zM14.5303 9C14.7595 9 15.0329 8.94242 15.2797 8.75782 15.5216 8.57687 15.6429 8.34476 15.7034 8.16869 15.7612 8.00057 15.7772 7.84503 15.7834 7.74672 15.7898 7.64567 15.7885 7.54701 15.7879 7.48975 15.7872 7.41787 15.7872 7.38955 15.7883 7.36865 15.7895 7.34548 15.7902 7.38742 15.7679 7.45778 15.7438 7.53405 15.6766 7.69339 15.5063 7.82785 15.3272 7.96919 15.1402 8 15.0303 8V6C14.7954 6 14.5153 6.06206 14.267 6.25808 14.0274 6.44723 13.9148 6.6847 13.861 6.85472 13.8091 7.01883 13.7959 7.17015 13.791 7.26416 13.7859 7.36045 13.7875 7.45713 13.7881 7.51025 13.7887 7.57799 13.7884 7.60433 13.7874 7.62047 13.7862 7.63935 13.7864 7.59318 13.812 7.51881 13.8403 7.43649 13.913 7.28251 14.0818 7.15625 14.2555 7.02633 14.4313 7 14.5303 7V9zm.5-1C15.116 8 15.0722 8.01052 14.9959 7.97707 14.8915 7.9313 14.8463 7.86209 14.8469 7.86316 14.8602 7.88659 14.9121 7.99729 14.9568 8.27816 15.0004 8.55275 15.0303 8.94539 15.0303 9.5h2C17.0303 8.31922 16.9153 7.45887 16.5887 6.88014 16.4018 6.54899 16.1378 6.29395 15.7991 6.14542 15.4884 6.0092 15.1946 6 15.0303 6V8zm0 1.5C15.0303 10.1065 15.0486 10.5694 15.0628 10.9282 15.0776 11.3035 15.0849 11.5128 15.0749 11.6775 15.0667 11.8132 15.0481 11.8811 15.0193 11.948 14.9822 12.0341 14.9084 12.1625 14.7303 12.4L16.3303 13.6C16.5426 13.317 16.7265 13.0404 16.8563 12.7387 16.9945 12.4177 17.0521 12.1149 17.0713 11.7985 17.0887 11.5111 17.0746 11.187 17.0612 10.8491 17.0472 10.4946 17.0303 10.0647 17.0303 9.5h-2zM14.7303 12.4C14.3399 12.9205 13.9649 13.4205 13.6875 13.7904 13.5488 13.9753 13.4345 14.1277 13.3549 14.2339 13.3151 14.287 13.2839 14.3285 13.2627 14.3568 13.2521 14.3709 13.244 14.3817 13.2386 14.389 13.2358 14.3926 13.2338 14.3954 13.2324 14.3972 13.2317 14.3981 13.2312 14.3988 13.2308 14.3993 13.2307 14.3995 13.2305 14.3997 13.2304 14.3998 13.2304 14.3999 13.2304 14.3999 13.2303 14.4c0 0 0 0 0 0C13.2303 14.4 13.2303 14.4 14.0303 15 14.8303 15.6 14.8303 15.6 14.8303 15.6c0 0 0 0 0 0C14.8304 15.5999 14.8304 15.5999 14.8304 15.5998 14.8305 15.5997 14.8307 15.5995 14.8308 15.5993 14.8312 15.5988 14.8317 15.5981 14.8324 15.5972 14.8338 15.5954 14.8358 15.5926 14.8386 15.589 14.844 15.5817 14.8521 15.5709 14.8627 15.5568 14.8839 15.5285 14.9151 15.487 14.9549 15.4339 15.0345 15.3277 15.1488 15.1753 15.2875 14.9904 15.5649 14.6205 15.9399 14.1205 16.3303 13.6L14.7303 12.4zM14.0303 15C13.0303 15 13.0303 14.9997 13.0303 14.9995 13.0303 14.9994 13.0303 14.9992 13.0303 14.999 13.0303 14.9987 13.0303 14.9984 13.0303 14.9981 13.0303 14.9975 13.0303 14.9969 13.0303 14.9965 13.0303 14.9955 13.0303 14.9948 13.0303 14.9942 13.0303 14.9931 13.0303 14.9929 13.0303 14.9934 13.0303 14.9943 13.0302 14.9983 13.03 15.0047 13.0295 15.0177 13.0284 15.0397 13.0259 15.0672 13.0206 15.1269 13.0109 15.1905 12.9974 15.241 12.9804 15.3044 12.9759 15.2778 13.0249 15.2169 13.0547 15.1798 13.111 15.1223 13.2008 15.0744 13.2955 15.024 13.3985 15 13.4939 15v2C13.9913 17 14.3594 16.7488 14.5832 16.4706 14.783 16.2222 14.8791 15.9456 14.9291 15.759 14.9826 15.5595 15.0065 15.3731 15.018 15.2453 15.0239 15.1791 15.0269 15.1229 15.0285 15.0813 15.0293 15.0603 15.0298 15.0428 15.03 15.0291 15.0301 15.0223 15.0302 15.0164 15.0303 15.0115 15.0303 15.0091 15.0303 15.0069 15.0303 15.005 15.0303 15.004 15.0303 15.0031 15.0303 15.0023 15.0303 15.0019 15.0303 15.0015 15.0303 15.0011 15.0303 15.0009 15.0303 15.0006 15.0303 15.0005 15.0303 15.0003 15.0303 15 14.0303 15zM13.4939 15C13.693 15 13.7977 15.0983 13.7739 15.0783 13.7372 15.0474 13.6932 14.9973 13.5594 14.8436 13.4554 14.7241 13.2789 14.5208 13.0556 14.3544 12.8151 14.1752 12.4708 14 12.0303 14v2C11.9152 16 11.8494 15.9498 11.8605 15.9581 11.8889 15.9792 11.937 16.0259 12.0506 16.1564 12.1343 16.2527 12.3007 16.4526 12.487 16.6092 12.6863 16.7767 13.0268 17 13.4939 17V15zM12.0303 14C11.1706 14 10.6595 14.6411 10.4574 14.9407 10.3336 15.1242 10.2439 15.3007 10.1858 15.4275 10.1562 15.4923 10.1332 15.5476 10.1168 15.589 10.1086 15.6097 10.1019 15.6272 10.0969 15.6409 10.0943 15.6477 10.0922 15.6536 10.0904 15.6585 10.0895 15.661 10.0887 15.6632 10.088 15.6651 10.0877 15.6661 10.0874 15.667 10.0871 15.6678 10.0869 15.6683 10.0868 15.6687 10.0867 15.6691 10.0866 15.6693 10.0865 15.6695 10.0865 15.6696 10.0864 15.6699 10.0863 15.6702 11.0303 16 11.9744 16.3298 11.9743 16.3301 11.9742 16.3303 11.9741 16.3304 11.9741 16.3307 11.974 16.3308 11.9739 16.3312 11.9738 16.3315 11.9737 16.3318 11.9735 16.3324 11.9733 16.3329 11.9731 16.3334 11.9727 16.3344 11.9725 16.3352 11.9723 16.3357 11.9719 16.3369 11.9717 16.3371 11.9719 16.3366 11.9723 16.3357 11.9738 16.3317 11.9764 16.3251 11.9817 16.3118 11.991 16.289 12.0043 16.26 12.0321 16.1993 12.0704 16.1258 12.1153 16.0593 12.1372 16.0269 12.1572 16.0011 12.1744 15.9819 12.1828 15.9725 12.1895 15.9657 12.1946 15.961 12.1996 15.9562 12.2021 15.9543 12.2019 15.9545 12.2009 15.9552 12.1386 16 12.0303 16V14zm-1 1H8.03031v2H11.0303V15zm4-1V10h-2v4h2zm-1-5h-1v2h1V9zm-2 1v4h2V10h-2zm1 5h1V13h-1v2zm-3-2C10.0303 13.317 10.1377 13.7051 10.2589 13.9914 10.3235 14.1441 10.4217 14.3399 10.5654 14.5154 10.6808 14.6564 11.002 15 11.5303 15V13C11.7316 13 11.8832 13.0698 11.9707 13.1257 12.054 13.179 12.099 13.2315 12.1128 13.2483 12.1376 13.2786 12.1275 13.2752 12.1007 13.2118 12.0777 13.1576 12.0567 13.0927 12.0423 13.0338 12.0354 13.0054 12.0315 12.9845 12.0298 12.9727 12.0275 12.9576 12.0303 12.9687 12.0303 13h-2zm1.5 2C12.0502 15 12.3713 14.6699 12.4951 14.5203 12.6423 14.3426 12.7413 14.1443 12.8059 13.9903 12.9283 13.6987 13.0303 13.3132 13.0303 13h-2C11.0303 12.9593 11.0346 12.9716 11.018 13.0416 11.0041 13.1004 10.9837 13.164 10.9618 13.2163 10.936 13.2778 10.9272 13.2779 10.9547 13.2447 10.9701 13.2261 11.0165 13.1732 11.1009 13.1204 11.1901 13.0647 11.3378 13 11.5303 13v2zm1.5-2V11h-2v2h2zm0-2C13.0303 10.683 12.9229 10.2949 12.8017 10.0086 12.7371 9.85585 12.639 9.66013 12.4952 9.48459 12.3798 9.34365 12.0586 9 11.5303 9v2C11.329 11 11.1774 10.9302 11.0899 10.8743 11.0067 10.821 10.9616 10.7685 10.9478 10.7517 10.923 10.7214 10.9331 10.7248 10.9599 10.7882 10.9829 10.8424 11.004 10.9073 11.0183 10.9662 11.0252 10.9946 11.0291 11.0155 11.0308 11.0273 11.0331 11.0424 11.0303 11.0313 11.0303 11h2zm-1.5-2C11.0104 9 10.6894 9.33014 10.5655 9.4797 10.4183 9.65742 10.3193 9.85569 10.2547 10.0097 10.1323 10.3013 10.0303 10.6868 10.0303 11h2C12.0303 11.0407 12.026 11.0284 12.0426 10.9584 12.0565 10.8996 12.0769 10.836 12.0988 10.7837 12.1247 10.7222 12.1334 10.7221 12.1059 10.7553 12.0905 10.7739 12.0441 10.8268 11.9597 10.8796 11.8705 10.9353 11.7228 11 11.5303 11V9zm-1.5 2v2h2V11h-2zM8.03031 13C8.03031 13.317 8.1377 13.7051 8.25889 13.9914 8.32355 14.1441 8.42166 14.3399 8.5654 14.5154 8.68082 14.6564 9.00203 15 9.53031 15V13C9.73161 13 9.88322 13.0698 9.97069 13.1257 10.054 13.179 10.099 13.2315 10.1128 13.2483 10.1376 13.2786 10.1275 13.2752 10.1007 13.2118 10.0777 13.1576 10.0567 13.0927 10.0423 13.0338 10.0354 13.0054 10.0315 12.9845 10.0298 12.9727 10.0275 12.9576 10.0303 12.9687 10.0303 13H8.03031zm1.5 2C10.0502 15 10.3713 14.6699 10.4951 14.5203 10.6423 14.3426 10.7413 14.1443 10.8059 13.9903 10.9283 13.6987 11.0303 13.3132 11.0303 13H9.03031C9.03031 12.9593 9.03464 12.9716 9.01802 13.0416 9.00407 13.1004 8.98372 13.164 8.96179 13.2163 8.93595 13.2778 8.92721 13.2779 8.95475 13.2447 8.97011 13.2261 9.01654 13.1732 9.10093 13.1204 9.19013 13.0647 9.33782 13 9.53031 13v2zM11.0303 13V11H9.03031v2H11.0303zm0-2C11.0303 10.683 10.9229 10.2949 10.8017 10.0086 10.7371 9.85585 10.639 9.66013 10.4952 9.48459 10.3798 9.34365 10.0586 9 9.53031 9v2C9.32901 11 9.1774 10.9302 9.08993 10.8743 9.00666 10.821 8.96157 10.7685 8.94783 10.7517 8.92297 10.7214 8.93311 10.7248 8.95994 10.7882 8.98289 10.8424 9.00396 10.9073 9.0183 10.9662 9.02523 10.9946 9.02907 11.0155 9.03084 11.0273 9.0331 11.0424 9.03031 11.0313 9.03031 11H11.0303zM9.53031 9C9.01043 9 8.68936 9.33014 8.5655 9.4797 8.41832 9.65742 8.31933 9.85569 8.25468 10.0097 8.1323 10.3013 8.03031 10.6868 8.03031 11H10.0303C10.0303 11.0407 10.026 11.0284 10.0426 10.9584 10.0565 10.8996 10.0769 10.836 10.0988 10.7837 10.1247 10.7222 10.1334 10.7221 10.1059 10.7553 10.0905 10.7739 10.0441 10.8268 9.95968 10.8796 9.87049 10.9353 9.72279 11 9.53031 11V9zm-1.5 2v2H10.0303V11H8.03031z" fill="#000" mask="url(#path-1-outside-1)"/></g><defs><filter id="filter0_d" x="0" y="0" width="19.0794" height="20" filterUnits="userSpaceOnUse" color-interpolation-filters="sRGB"><feFlood flood-opacity="0" result="BackgroundImageFix"/><feColorMatrix in="SourceAlpha" type="matrix" values="0 0 0 0 0 0 0 0 0 0 0 0 0 0 0 0 0 0 127 0"/><feOffset dy="1"/><feGaussianBlur stdDeviation="1"/><feColorMatrix type="matrix" values="0 0 0 0 0 0 0 0 0 0 0 0 0 0 0 0 0 0 1 0"/><feBlend mode="normal" in2="BackgroundImageFix" result="effect1_dropShadow"/><feBlend mode="normal" in="SourceGraphic" in2="effect1_dropShadow" result="shape"/></filter></defs></svg>